<mxfile host="app.diagrams.net" modified="2022-01-04T22:11:02.191Z" agent="5.0 (Windows NT 10.0; Win64; x64) AppleWebKit/537.36 (KHTML, like Gecko) Chrome/96.0.4664.110 Safari/537.36" etag="xjKK5GM8E6rMLVP0_hpX" version="16.2.1" type="github">
  <diagram id="mYsQa7o6rloD11eUMH3y" name="Page-1">
    <mxGraphModel dx="1422" dy="762" grid="1" gridSize="10" guides="1" tooltips="1" connect="1" arrows="1" fold="1" page="1" pageScale="1" pageWidth="827" pageHeight="1169" math="0" shadow="0">
      <root>
        <mxCell id="0" />
        <mxCell id="1" parent="0" />
        <mxCell id="Yh3Dx7aPhnNl5TnsE3OP-1" value="" style="endArrow=none;html=1;rounded=0;strokeWidth=5;startArrow=none;" edge="1" parent="1" source="Yh3Dx7aPhnNl5TnsE3OP-7">
          <mxGeometry width="50" height="50" relative="1" as="geometry">
            <mxPoint x="160" y="440" as="sourcePoint" />
            <mxPoint x="240" y="240" as="targetPoint" />
          </mxGeometry>
        </mxCell>
        <mxCell id="Yh3Dx7aPhnNl5TnsE3OP-2" value="" style="endArrow=none;html=1;rounded=0;strokeWidth=5;startArrow=none;" edge="1" parent="1">
          <mxGeometry width="50" height="50" relative="1" as="geometry">
            <mxPoint x="169.28476690885282" y="436.286093236459" as="sourcePoint" />
            <mxPoint x="360" y="360" as="targetPoint" />
          </mxGeometry>
        </mxCell>
        <mxCell id="Yh3Dx7aPhnNl5TnsE3OP-3" value="" style="endArrow=none;html=1;rounded=0;strokeWidth=5;" edge="1" parent="1">
          <mxGeometry width="50" height="50" relative="1" as="geometry">
            <mxPoint x="240" y="240" as="sourcePoint" />
            <mxPoint x="440" y="160" as="targetPoint" />
          </mxGeometry>
        </mxCell>
        <mxCell id="Yh3Dx7aPhnNl5TnsE3OP-4" value="" style="endArrow=none;html=1;rounded=0;strokeWidth=5;startArrow=none;" edge="1" parent="1" source="Yh3Dx7aPhnNl5TnsE3OP-11">
          <mxGeometry width="50" height="50" relative="1" as="geometry">
            <mxPoint x="360" y="360" as="sourcePoint" />
            <mxPoint x="440" y="160" as="targetPoint" />
          </mxGeometry>
        </mxCell>
        <mxCell id="Yh3Dx7aPhnNl5TnsE3OP-6" value="" style="endArrow=none;html=1;rounded=0;strokeWidth=5;" edge="1" parent="1">
          <mxGeometry width="50" height="50" relative="1" as="geometry">
            <mxPoint x="160" y="440" as="sourcePoint" />
            <mxPoint x="160" y="440" as="targetPoint" />
          </mxGeometry>
        </mxCell>
        <mxCell id="Yh3Dx7aPhnNl5TnsE3OP-7" value="" style="ellipse;whiteSpace=wrap;html=1;aspect=fixed;" vertex="1" parent="1">
          <mxGeometry x="230" y="230" width="20" height="20" as="geometry" />
        </mxCell>
        <mxCell id="Yh3Dx7aPhnNl5TnsE3OP-8" value="" style="endArrow=none;html=1;rounded=0;strokeWidth=5;startArrow=none;" edge="1" parent="1" target="Yh3Dx7aPhnNl5TnsE3OP-7">
          <mxGeometry width="50" height="50" relative="1" as="geometry">
            <mxPoint x="163.713906763541" y="430.71523309114764" as="sourcePoint" />
            <mxPoint x="240" y="240" as="targetPoint" />
          </mxGeometry>
        </mxCell>
        <mxCell id="Yh3Dx7aPhnNl5TnsE3OP-9" value="" style="ellipse;whiteSpace=wrap;html=1;aspect=fixed;" vertex="1" parent="1">
          <mxGeometry x="350" y="350" width="20" height="20" as="geometry" />
        </mxCell>
        <mxCell id="Yh3Dx7aPhnNl5TnsE3OP-10" value="" style="endArrow=none;html=1;rounded=0;strokeWidth=5;" edge="1" parent="1" target="Yh3Dx7aPhnNl5TnsE3OP-9">
          <mxGeometry width="50" height="50" relative="1" as="geometry">
            <mxPoint x="360" y="360" as="sourcePoint" />
            <mxPoint x="440" y="160" as="targetPoint" />
          </mxGeometry>
        </mxCell>
        <mxCell id="Yh3Dx7aPhnNl5TnsE3OP-11" value="&lt;b&gt;E&lt;/b&gt;" style="ellipse;whiteSpace=wrap;html=1;aspect=fixed;" vertex="1" parent="1">
          <mxGeometry x="430" y="150" width="20" height="20" as="geometry" />
        </mxCell>
        <mxCell id="Yh3Dx7aPhnNl5TnsE3OP-14" value="" style="endArrow=none;html=1;rounded=0;strokeWidth=5;startArrow=none;" edge="1" parent="1" source="Yh3Dx7aPhnNl5TnsE3OP-9" target="Yh3Dx7aPhnNl5TnsE3OP-11">
          <mxGeometry width="50" height="50" relative="1" as="geometry">
            <mxPoint x="363.713906763541" y="350.71523309114764" as="sourcePoint" />
            <mxPoint x="440" y="160" as="targetPoint" />
          </mxGeometry>
        </mxCell>
        <mxCell id="Yh3Dx7aPhnNl5TnsE3OP-15" value="" style="endArrow=none;html=1;rounded=0;strokeWidth=5;" edge="1" parent="1">
          <mxGeometry width="50" height="50" relative="1" as="geometry">
            <mxPoint x="160" y="440" as="sourcePoint" />
            <mxPoint x="160" y="440" as="targetPoint" />
          </mxGeometry>
        </mxCell>
        <mxCell id="Yh3Dx7aPhnNl5TnsE3OP-16" value="" style="endArrow=none;dashed=1;html=1;dashPattern=1 3;strokeWidth=2;rounded=0;" edge="1" parent="1">
          <mxGeometry width="50" height="50" relative="1" as="geometry">
            <mxPoint x="160" y="440" as="sourcePoint" />
            <mxPoint x="160" y="120" as="targetPoint" />
          </mxGeometry>
        </mxCell>
        <mxCell id="Yh3Dx7aPhnNl5TnsE3OP-17" value="" style="endArrow=none;dashed=1;html=1;dashPattern=1 3;strokeWidth=2;rounded=0;startArrow=none;" edge="1" parent="1" source="Yh3Dx7aPhnNl5TnsE3OP-37">
          <mxGeometry width="50" height="50" relative="1" as="geometry">
            <mxPoint x="520" y="440" as="sourcePoint" />
            <mxPoint x="160" y="440" as="targetPoint" />
          </mxGeometry>
        </mxCell>
        <mxCell id="Yh3Dx7aPhnNl5TnsE3OP-18" value="" style="endArrow=none;dashed=1;html=1;dashPattern=1 3;strokeWidth=2;rounded=0;" edge="1" parent="1">
          <mxGeometry width="50" height="50" relative="1" as="geometry">
            <mxPoint x="520" y="300" as="sourcePoint" />
            <mxPoint x="160" y="440" as="targetPoint" />
          </mxGeometry>
        </mxCell>
        <mxCell id="Yh3Dx7aPhnNl5TnsE3OP-19" value="" style="endArrow=none;dashed=1;html=1;dashPattern=1 3;strokeWidth=2;rounded=0;" edge="1" parent="1">
          <mxGeometry width="50" height="50" relative="1" as="geometry">
            <mxPoint x="290" y="120" as="sourcePoint" />
            <mxPoint x="160" y="440" as="targetPoint" />
          </mxGeometry>
        </mxCell>
        <mxCell id="Yh3Dx7aPhnNl5TnsE3OP-20" value="" style="curved=1;endArrow=classic;html=1;rounded=0;strokeWidth=2;" edge="1" parent="1">
          <mxGeometry width="50" height="50" relative="1" as="geometry">
            <mxPoint x="160" y="340" as="sourcePoint" />
            <mxPoint x="200" y="340" as="targetPoint" />
            <Array as="points">
              <mxPoint x="180" y="310" />
            </Array>
          </mxGeometry>
        </mxCell>
        <mxCell id="Yh3Dx7aPhnNl5TnsE3OP-21" value="&lt;span style=&quot;color: rgb(32 , 33 , 36) ; font-family: &amp;#34;arial&amp;#34; , sans-serif ; text-align: left ; background-color: rgb(255 , 255 , 255)&quot;&gt;&lt;font style=&quot;font-size: 20px&quot;&gt;Î¸&lt;sub&gt;2&lt;/sub&gt;&lt;/font&gt;&lt;/span&gt;" style="text;html=1;strokeColor=none;fillColor=none;align=center;verticalAlign=middle;whiteSpace=wrap;rounded=0;" vertex="1" parent="1">
          <mxGeometry x="150" y="290" width="60" height="30" as="geometry" />
        </mxCell>
        <mxCell id="Yh3Dx7aPhnNl5TnsE3OP-22" value="" style="curved=1;endArrow=classic;html=1;rounded=0;strokeWidth=2;" edge="1" parent="1">
          <mxGeometry width="50" height="50" relative="1" as="geometry">
            <mxPoint x="160" y="360" as="sourcePoint" />
            <mxPoint x="260" y="400" as="targetPoint" />
            <Array as="points">
              <mxPoint x="190" y="320" />
            </Array>
          </mxGeometry>
        </mxCell>
        <mxCell id="Yh3Dx7aPhnNl5TnsE3OP-24" value="" style="shape=crossbar;whiteSpace=wrap;html=1;rounded=1;direction=south;fontSize=20;rotation=-90;" vertex="1" parent="1">
          <mxGeometry x="290" y="320" width="20" height="280" as="geometry" />
        </mxCell>
        <mxCell id="Yh3Dx7aPhnNl5TnsE3OP-25" value="" style="shape=crossbar;whiteSpace=wrap;html=1;rounded=1;direction=south;fontSize=20;" vertex="1" parent="1">
          <mxGeometry x="130" y="160" width="20" height="280" as="geometry" />
        </mxCell>
        <mxCell id="Yh3Dx7aPhnNl5TnsE3OP-28" value="" style="line;strokeWidth=2;html=1;fontSize=20;rotation=25;" vertex="1" parent="1">
          <mxGeometry x="160" y="235" width="160" height="10" as="geometry" />
        </mxCell>
        <mxCell id="Yh3Dx7aPhnNl5TnsE3OP-29" value="" style="line;strokeWidth=2;html=1;fontSize=20;rotation=65;" vertex="1" parent="1">
          <mxGeometry x="280" y="355" width="160" height="10" as="geometry" />
        </mxCell>
        <mxCell id="Yh3Dx7aPhnNl5TnsE3OP-32" value="" style="curved=1;endArrow=classic;html=1;rounded=0;fontSize=20;strokeWidth=2;exitX=0.687;exitY=0.463;exitDx=0;exitDy=0;exitPerimeter=0;" edge="1" parent="1" source="Yh3Dx7aPhnNl5TnsE3OP-29">
          <mxGeometry width="50" height="50" relative="1" as="geometry">
            <mxPoint x="390" y="410" as="sourcePoint" />
            <mxPoint x="380" y="320" as="targetPoint" />
            <Array as="points">
              <mxPoint x="390" y="380" />
              <mxPoint x="400" y="360" />
              <mxPoint x="400" y="340" />
            </Array>
          </mxGeometry>
        </mxCell>
        <mxCell id="Yh3Dx7aPhnNl5TnsE3OP-34" value="" style="curved=1;endArrow=classic;html=1;rounded=0;fontSize=20;strokeWidth=2;exitX=0.908;exitY=0.768;exitDx=0;exitDy=0;exitPerimeter=0;" edge="1" parent="1" source="Yh3Dx7aPhnNl5TnsE3OP-28">
          <mxGeometry width="50" height="50" relative="1" as="geometry">
            <mxPoint x="290" y="260" as="sourcePoint" />
            <mxPoint x="290" y="220" as="targetPoint" />
            <Array as="points">
              <mxPoint x="320" y="250" />
            </Array>
          </mxGeometry>
        </mxCell>
        <mxCell id="Yh3Dx7aPhnNl5TnsE3OP-36" value="&lt;span style=&quot;color: rgb(32 , 33 , 36) ; font-family: &amp;#34;arial&amp;#34; , sans-serif ; text-align: left ; background-color: rgb(255 , 255 , 255)&quot;&gt;&lt;font style=&quot;font-size: 20px&quot;&gt;Î¸&lt;sub&gt;2&lt;/sub&gt;&lt;/font&gt;&lt;/span&gt;" style="text;html=1;strokeColor=none;fillColor=none;align=center;verticalAlign=middle;whiteSpace=wrap;rounded=0;" vertex="1" parent="1">
          <mxGeometry x="220" y="345" width="60" height="30" as="geometry" />
        </mxCell>
        <mxCell id="Yh3Dx7aPhnNl5TnsE3OP-37" value="" style="ellipse;whiteSpace=wrap;html=1;aspect=fixed;fontSize=20;" vertex="1" parent="1">
          <mxGeometry x="150" y="430" width="20" height="20" as="geometry" />
        </mxCell>
        <mxCell id="Yh3Dx7aPhnNl5TnsE3OP-38" value="" style="endArrow=none;dashed=1;html=1;dashPattern=1 3;strokeWidth=2;rounded=0;" edge="1" parent="1" target="Yh3Dx7aPhnNl5TnsE3OP-37">
          <mxGeometry width="50" height="50" relative="1" as="geometry">
            <mxPoint x="520" y="440" as="sourcePoint" />
            <mxPoint x="160" y="440" as="targetPoint" />
          </mxGeometry>
        </mxCell>
        <mxCell id="Yh3Dx7aPhnNl5TnsE3OP-39" value="a&lt;sub&gt;2&lt;/sub&gt;" style="text;html=1;strokeColor=none;fillColor=none;align=center;verticalAlign=middle;whiteSpace=wrap;rounded=0;fontSize=20;" vertex="1" parent="1">
          <mxGeometry x="170" y="260" width="60" height="30" as="geometry" />
        </mxCell>
        <mxCell id="Yh3Dx7aPhnNl5TnsE3OP-40" value="a&lt;sub&gt;2&lt;/sub&gt;" style="text;html=1;strokeColor=none;fillColor=none;align=center;verticalAlign=middle;whiteSpace=wrap;rounded=0;fontSize=20;" vertex="1" parent="1">
          <mxGeometry x="270" y="390" width="60" height="30" as="geometry" />
        </mxCell>
        <mxCell id="Yh3Dx7aPhnNl5TnsE3OP-41" value="a&lt;sub&gt;3&lt;/sub&gt;" style="text;html=1;strokeColor=none;fillColor=none;align=center;verticalAlign=middle;whiteSpace=wrap;rounded=0;fontSize=20;" vertex="1" parent="1">
          <mxGeometry x="300" y="160" width="60" height="30" as="geometry" />
        </mxCell>
        <mxCell id="Yh3Dx7aPhnNl5TnsE3OP-42" value="a&lt;sub&gt;3&lt;/sub&gt;" style="text;html=1;strokeColor=none;fillColor=none;align=center;verticalAlign=middle;whiteSpace=wrap;rounded=0;fontSize=20;" vertex="1" parent="1">
          <mxGeometry x="400" y="250" width="60" height="30" as="geometry" />
        </mxCell>
        <mxCell id="Yh3Dx7aPhnNl5TnsE3OP-43" value="d" style="text;html=1;strokeColor=none;fillColor=none;align=center;verticalAlign=middle;whiteSpace=wrap;rounded=0;fontSize=20;" vertex="1" parent="1">
          <mxGeometry x="110" y="280" width="30" height="30" as="geometry" />
        </mxCell>
        <mxCell id="Yh3Dx7aPhnNl5TnsE3OP-44" value="X" style="text;html=1;strokeColor=none;fillColor=none;align=center;verticalAlign=middle;whiteSpace=wrap;rounded=0;fontSize=20;" vertex="1" parent="1">
          <mxGeometry x="290" y="460" width="30" height="30" as="geometry" />
        </mxCell>
        <mxCell id="Yh3Dx7aPhnNl5TnsE3OP-47" value="&lt;span style=&quot;color: rgb(32 , 33 , 36) ; font-family: &amp;#34;arial&amp;#34; , sans-serif ; text-align: left ; background-color: rgb(255 , 255 , 255)&quot;&gt;Î¸&lt;sub&gt;3&lt;/sub&gt;&lt;/span&gt;" style="text;html=1;strokeColor=none;fillColor=none;align=center;verticalAlign=middle;whiteSpace=wrap;rounded=0;fontSize=20;" vertex="1" parent="1">
          <mxGeometry x="315" y="230" width="30" height="30" as="geometry" />
        </mxCell>
        <mxCell id="Yh3Dx7aPhnNl5TnsE3OP-48" value="&lt;span style=&quot;color: rgb(32 , 33 , 36) ; font-family: &amp;#34;arial&amp;#34; , sans-serif ; text-align: left ; background-color: rgb(255 , 255 , 255)&quot;&gt;Î¸&lt;sub&gt;3&lt;/sub&gt;&lt;/span&gt;" style="text;html=1;strokeColor=none;fillColor=none;align=center;verticalAlign=middle;whiteSpace=wrap;rounded=0;fontSize=20;" vertex="1" parent="1">
          <mxGeometry x="399" y="350" width="30" height="30" as="geometry" />
        </mxCell>
      </root>
    </mxGraphModel>
  </diagram>
</mxfile>
